<?xml version="1.0" encoding="UTF-8" standalone="no"?>
<!-- Created with Inkscape (http://www.inkscape.org/) -->

<svg
   width="86.094727mm"
   height="84.265793mm"
   viewBox="0 0 86.094727 84.265793"
   version="1.1"
   id="svg1"
   xml:space="preserve"
   inkscape:version="1.4 (86a8ad7, 2024-10-11)"
   sodipodi:docname="favicon.svg"
   xmlns:inkscape="http://www.inkscape.org/namespaces/inkscape"
   xmlns:sodipodi="http://sodipodi.sourceforge.net/DTD/sodipodi-0.dtd"
   xmlns="http://www.w3.org/2000/svg"
   xmlns:svg="http://www.w3.org/2000/svg"><sodipodi:namedview
     id="namedview1"
     pagecolor="#505050"
     bordercolor="#eeeeee"
     borderopacity="1"
     inkscape:showpageshadow="0"
     inkscape:pageopacity="0"
     inkscape:pagecheckerboard="0"
     inkscape:deskcolor="#505050"
     inkscape:document-units="mm"
     inkscape:zoom="0.71891835"
     inkscape:cx="-2.0864678"
     inkscape:cy="103.6279"
     inkscape:window-width="1920"
     inkscape:window-height="1009"
     inkscape:window-x="-8"
     inkscape:window-y="-8"
     inkscape:window-maximized="1"
     inkscape:current-layer="layer2" /><defs
     id="defs1" /><g
     inkscape:groupmode="layer"
     id="layer2"
     inkscape:label="Layer 2"><path
       style="fill:#e6e6e6;stroke:#000000"
       d="m 13.84507,80.44137 c 0,-0.370255 3.890764,-4.107598 5.676098,-5.452277 2.870467,-2.161981 6.237756,-4.199754 9.862217,-5.968292 1.873219,-0.914028 3.524915,-1.663056 3.670436,-1.664507 0.446811,-0.0045 0.293884,-0.344669 -0.270524,-0.601831 -0.294309,-0.134096 -0.590249,-0.38751 -0.657646,-0.563142 -0.0674,-0.175632 -0.241013,-0.319331 -0.385814,-0.319331 -0.144801,0 -0.972101,-0.50859 -1.838444,-1.1302 -0.866343,-0.62161 -1.833054,-1.194924 -2.148246,-1.274033 -0.315192,-0.07911 -0.573076,-0.284893 -0.573076,-0.4573 0,-0.172407 -0.142875,-0.313467 -0.3175,-0.313467 -0.174625,0 -0.3175,-0.07916 -0.3175,-0.1759 0,-0.09674 -0.242346,-0.305599 -0.538547,-0.464121 -0.296201,-0.158522 -0.742366,-0.650867 -0.991477,-1.0941 -0.249111,-0.443234 -0.516731,-0.805879 -0.594711,-0.805879 -0.07798,0 -0.398723,-0.238125 -0.712763,-0.529167 -0.314039,-0.291042 -0.650997,-0.529167 -0.748795,-0.529167 -0.0978,0 -0.23981,-0.247011 -0.315583,-0.548913 -0.07577,-0.301903 -0.465015,-0.885869 -0.864984,-1.297703 -0.399968,-0.411835 -0.676052,-0.831573 -0.613519,-0.932753 0.06253,-0.10118 0.02015,-0.183964 -0.09418,-0.183964 -0.439634,0 -1.524952,-1.31416 -1.402902,-1.698707 0.06674,-0.210283 0.03117,-0.438069 -0.07906,-0.506191 -0.110223,-0.06812 -0.156566,-0.291501 -0.102984,-0.496399 0.05907,-0.225891 -0.14756,-0.60725 -0.52491,-0.968775 -0.374285,-0.358587 -0.583823,-0.743497 -0.525714,-0.965706 0.05314,-0.20321 -0.111178,-0.721663 -0.365153,-1.152119 -0.267647,-0.453627 -0.413281,-0.96808 -0.346424,-1.223742 0.06344,-0.242602 -0.03813,-0.762952 -0.225725,-1.156333 -0.266752,-0.559384 -0.289561,-0.819756 -0.104678,-1.194883 0.130018,-0.263805 0.293133,-1.622645 0.362477,-3.019645 0.06935,-1.397001 0.158478,-3.206751 0.198074,-4.021667 0.0396,-0.814917 0.123398,-1.624542 0.186228,-1.799167 0.06283,-0.174625 0.164152,-0.675661 0.225159,-1.113412 0.06101,-0.437752 0.259627,-0.944618 0.441379,-1.126369 0.181751,-0.181752 0.330456,-0.359427 0.330456,-0.394834 0,-0.250092 -1.080502,-2.434102 -1.258724,-2.54425 -0.122618,-0.07578 -0.222942,-0.298968 -0.222942,-0.495968 0,-0.197001 -0.536505,-1.501067 -1.192232,-2.897925 -2.346463,-4.998536 -4.099435,-9.793639 -4.099435,-11.213649 0,-1.019721 -1.210667,-2.277991 -5.2071214,-5.411858 C 3.8503582,10.141344 3.3674022,9.8032577 2.2881184,9.3258387 0.97208631,8.7436955 1.2734979,8.5834565 2.851633,9.0262587 4.2622419,9.4220557 4.7634534,9.3573497 3.6429587,8.9240996 3.028448,8.6864931 2.9999088,8.6437301 3.4061605,8.5692824 c 0.2540579,-0.046557 0.7493903,0.064005 1.1007387,0.2456945 0.8402904,0.4345308 1.2261938,0.4402188 0.8715047,0.012844 -0.2171014,-0.2615911 -0.1984651,-0.3175 0.1058333,-0.3175 0.3201862,0 0.3306769,-0.047525 0.078834,-0.3571305 C 5.304598,7.8354334 5.3192426,7.8147449 5.6959039,7.9655383 6.7016547,8.3681828 6.9361004,8.378756 6.7965823,8.0151777 6.6834434,7.7203426 6.8122086,7.6636544 7.5950551,7.6636544 c 0.5133508,0 0.9922327,0.09525 1.0641822,0.2116667 0.071949,0.1164167 0.2736922,0.2116667 0.4483172,0.2116667 0.1782146,0 0.2539745,-0.1027864 0.1726941,-0.2343008 -0.101302,-0.1639101 0.063469,-0.188556 0.5484528,-0.082036 0.5694926,0.1250814 0.6712826,0.094997 0.5701636,-0.1685148 -0.08988,-0.2342178 0.11574,-0.1842095 0.761972,0.1853194 1.04621,0.5982439 1.234212,0.628288 1.057996,0.1690746 -0.111185,-0.2897431 -0.06295,-0.3055493 0.315077,-0.1032376 0.2455,0.1313875 0.52188,0.3567808 0.614179,0.500874 0.213727,0.3336645 0.908648,0.8832418 0.908648,0.7186036 0,-0.068412 -0.298426,-0.464274 -0.663169,-0.8796932 -1.227593,-1.3981523 -0.509113,-0.9378217 1.366327,0.8754052 1.023534,0.9895815 2.657545,2.8642605 3.631137,4.1659555 2.589718,3.462459 7.031092,7.653092 10.299976,9.718483 0.633264,0.400118 4.047275,1.047143 5.137727,0.973705 0.396555,-0.02671 0.8835,0.0863 1.082099,0.251121 0.317679,0.26365 0.406787,0.243247 0.741176,-0.169707 0.482731,-0.596147 0.91981,-0.594712 1.478391,0.0049 0.434168,0.466024 0.4533,0.467652 1.104433,0.09395 0.529825,-0.304078 0.696235,-0.324884 0.830394,-0.103823 0.446182,0.735194 0.598018,0.849414 1.365962,1.027554 0.453593,0.105221 1.559047,0.193583 2.456565,0.19636 1.47721,0.0046 1.67891,-0.0457 2.128445,-0.530505 0.482447,-0.520297 0.51882,-0.526269 1.276714,-0.2096 0.974911,0.407343 2.964427,0.226449 3.779833,-0.343676 0.309012,-0.21606 0.708978,-0.392836 0.888811,-0.392836 0.179833,0 0.581247,-0.333375 0.892031,-0.740833 0.310783,-0.407459 0.738634,-0.740834 0.95078,-0.740834 0.212145,0 0.444586,-0.09525 0.516536,-0.211666 0.07195,-0.116417 0.387133,-0.212648 0.700408,-0.213847 1.052014,-0.004 4.423946,-0.77742 4.927627,-1.130212 0.274263,-0.192101 0.647135,-0.349275 0.828605,-0.349275 0.18147,0 0.864702,-0.547687 1.518293,-1.217083 1.573317,-1.611361 5.558696,-6.441517 6.433043,-7.796649 1.349658,-2.0918053 3.073709,-4.3882963 3.747815,-4.9922084 0.375398,-0.3363087 1.349293,-1.052911 2.164209,-1.5924495 0.814917,-0.5395385 1.672167,-1.1390225 1.905,-1.3321868 0.500962,-0.4156102 2.010834,-0.888618 2.010834,-0.6299476 0,0.098919 -0.189894,0.3128592 -0.421987,0.4754233 -0.802337,0.5619785 -0.164165,0.5477042 0.850909,-0.019033 0.564921,-0.3154069 1.09702,-0.4872795 1.194485,-0.3858293 0.09667,0.1006202 -0.0022,0.290837 -0.219753,0.4227041 -1.360318,0.8246185 -1.636297,1.5423482 -0.334137,0.8689746 0.617368,-0.3192534 0.672596,-0.3208051 0.55548,-0.015607 -0.150035,0.3909853 0.03457,0.4217284 0.79539,0.1324634 0.29862,-0.1135353 0.542946,-0.1749784 0.542946,-0.1365403 0,0.038438 -0.72274,0.821893 -1.606088,1.7410111 -4.082444,4.2477544 -4.846813,5.9612014 -6.127685,13.7361244 -0.585027,3.551128 -0.592099,3.579771 -1.456317,5.898068 -0.512871,1.375795 -0.835001,3.419192 -0.781502,4.957371 0.0133,0.382491 -0.155856,1.049241 -0.37591,1.481666 -0.534441,1.050227 -0.889154,2.385317 -0.70974,2.671364 0.07987,0.127342 0.153721,0.326781 0.164112,0.443198 0.133366,1.494169 0.408448,2.43695 0.741931,2.542793 0.408457,0.12964 0.939018,1.245338 0.879413,1.84929 -0.02377,0.240832 0.110668,0.370417 0.384282,0.370417 0.466504,0 0.52817,0.250611 0.208598,0.847736 -0.144286,0.269602 -0.14079,0.440731 0.01092,0.534493 0.307234,0.189881 0.02396,2.991322 -0.383674,3.794279 -0.21188,0.417367 -0.241415,0.651079 -0.08871,0.70198 0.14404,0.04801 0.06556,0.389713 -0.211671,0.92159 -0.340095,0.652486 -0.413228,1.076288 -0.320639,1.858065 0.09533,0.804941 0.01185,1.246101 -0.406814,2.149742 -0.319972,0.690627 -0.478953,1.327452 -0.404976,1.622199 0.06698,0.26688 -0.01898,0.757453 -0.191033,1.090163 -0.172051,0.33271 -0.404365,1.173366 -0.516252,1.868125 -0.119843,0.744156 -0.434538,1.603747 -0.765876,2.091996 -0.309344,0.45584 -0.615509,1.09412 -0.680368,1.4184 -0.06486,0.324281 -0.295841,0.684819 -0.513295,0.801197 -0.217455,0.116378 -0.395372,0.428165 -0.395372,0.69286 0,0.264695 -0.129697,0.658636 -0.288216,0.875424 -0.569333,0.778609 -0.213032,1.098495 1.523145,1.367473 2.313337,0.358395 6.840097,1.563859 9.276301,2.470254 2.248624,0.836605 5.998771,2.52558 5.998771,2.701701 0,0.05953 -0.738188,-0.22957 -1.640417,-0.642448 -3.619637,-1.656417 -7.836579,-3.026215 -11.58875,-3.764398 -3.911317,-0.769492 -4.339167,-0.81263 -4.339167,-0.437498 0,0.176 0.166687,0.321057 0.370417,0.322348 0.271318,0.0017 0.186378,0.147392 -0.3175,0.544508 -0.378355,0.298188 -0.687917,0.614136 -0.687917,0.702107 0,0.08797 0.829888,0.475182 1.844197,0.860471 5.068352,1.925232 14.381658,7.048566 15.845255,8.716619 0.488433,0.556664 0.457515,0.539464 -2.555285,-1.421557 -4.40719,-2.868664 -10.815794,-6.08654 -14.306608,-7.183648 l -1.183274,-0.371884 -0.564784,0.491074 -0.564785,0.491074 2.065558,1.033541 c 2.81974,1.410909 2.996703,1.684288 0.265731,0.410508 -1.222012,-0.569971 -2.381318,-1.092555 -2.576237,-1.161299 -0.261386,-0.09219 -0.675802,0.302181 -1.579029,1.502637 -1.608955,2.138421 -4.488324,5.111926 -5.861179,6.052801 -0.614386,0.421063 -2.117811,1.089261 -3.423728,1.521675 -2.131927,0.705922 -2.471175,0.761033 -4.021667,0.653318 -1.644051,-0.114215 -2.019134,-0.233817 -5.185833,-1.653599 -2.520271,-1.129958 -6.923096,-3.932629 -7.522678,-4.788652 -0.183147,-0.261479 -0.446655,-0.473889 -0.585575,-0.472023 -0.319639,0.0043 -4.029214,2.786473 -5.793973,4.345476 -2.403474,2.123249 -2.752192,2.291357 -0.786667,0.379232 1.059817,-1.031024 2.884437,-2.579769 4.05471,-3.441655 1.332952,-0.981696 2.0872,-1.672788 2.019163,-1.850089 -0.05973,-0.155663 -0.193665,-0.283024 -0.297627,-0.283024 -0.103961,0 -0.18902,-0.136456 -0.18902,-0.303236 0,-0.658675 -0.838822,-0.543075 -2.99498,0.412748 -6.066603,2.689319 -12.167854,6.787451 -16.002104,10.748408 -0.844021,0.871912 -1.534584,1.494319 -1.534584,1.383127 z m -1.638203,-4.539006 c 0.148447,-0.240192 3.090568,-2.345956 4.23112,-3.02834 1.309893,-0.783699 0.894777,-0.331074 -0.529166,0.57698 -0.727605,0.463996 -1.886501,1.25116 -2.575326,1.749253 -0.688825,0.498093 -1.195807,0.814041 -1.126628,0.702107 z m 5.236537,-3.563669 c 0,-0.05821 0.28575,-0.253601 0.635,-0.434205 0.34925,-0.180604 0.635,-0.280746 0.635,-0.222538 0,0.05821 -0.28575,0.2536 -0.635,0.434205 -0.34925,0.180604 -0.635,0.280746 -0.635,0.222538 z m 1.481667,-0.856719 c 0,-0.141029 3.412389,-1.844819 3.506452,-1.750756 0.04179,0.04179 -0.730067,0.475738 -1.715236,0.964332 -0.985169,0.488594 -1.791216,0.842485 -1.791216,0.786424 z m 4.445,-2.205791 c 0.407458,-0.212902 0.978958,-0.445737 1.27,-0.517411 0.291041,-0.07167 0.05292,0.100883 -0.529167,0.38346 -1.229573,0.596905 -1.837065,0.706746 -0.740833,0.133951 z m 2.116666,-0.828484 c 0.174625,-0.107894 0.555625,-0.259865 0.846667,-0.337714 0.367766,-0.09837 0.432327,-0.08171 0.211667,0.05463 -0.174625,0.107893 -0.555625,0.259864 -0.846667,0.337713 -0.367766,0.09837 -0.432326,0.08171 -0.211667,-0.05463 z"
       id="path9" /></g><g
     inkscape:label="Layer 1"
     inkscape:groupmode="layer"
     id="layer1"
     transform="translate(-51.006533,-116.67194)"><path
       id="path10"
       style="fill:#000000;stroke:#000000;stroke-width:0.600001"
       d="m 113.57179,159.54765 c -1.80287,0.19393 -3.22129,0.5863 -4.331,1.11052 0.58754,0.93748 1.26545,2.63943 -0.03,4.34186 -1.47958,-1.2461 -1.56858,-2.56088 -1.31051,-3.54087 -4.16415,3.1218 -1.64331,8.71523 -1.64331,8.71523 -0.046,-1.70214 0.27595,-2.53008 0.27595,-2.53008 7.82063,2.02417 7.03884,-8.09666 7.03884,-8.09666 z m -26.919797,2.46238 c -0.966214,0.004 -2.061888,0.13876 -3.304707,0.43563 0,0 0.45973,9.43072 9.338448,6.30246 0,0 1.058322,0.73611 1.104325,1.8402 0,0 0.576326,-6.81728 -4.839498,-8.29614 0.492605,0.99323 0.985848,2.73451 -0.451135,4.2938 -1.825848,-1.85789 -1.131311,-3.60337 -0.541052,-4.49275 -0.407255,-0.055 -0.84086,-0.0852 -1.306381,-0.0832 z m 19.650997,16.21503 c -2.94424,1.15009 -3.54338,0.7896 -4.92218,1.01182 -1.6407,0.26444 -2.457354,-0.0942 -5.198649,0.13798 1.997088,1.93433 3.03818,0.1457 3.680396,2.71456 0.173893,0.69559 0.909263,0.99128 1.647963,0.98341 -0.047,1.32887 -0.49982,4.75081 -3.8716,5.74021 0,0 5.79029,-1.13818 7.61194,-0.84542 0,0 -2.80058,-0.76658 -3.64422,-4.8979 0.79174,-0.0366 1.55976,-0.41755 1.61436,-1.02629 0.26308,-2.93282 3.22,-1.88622 3.08199,-3.81837 z" /></g></svg>
